<svg preserveAspectRatio="none" width="100%" height="100%" overflow="visible" style="display: block;" viewBox="0 0 27.3424 30.007" fill="none" xmlns="http://www.w3.org/2000/svg">
<path id="Vector" d="M3.00455 17.6701C2.75223 17.671 2.50486 17.6003 2.29115 17.4661C2.07745 17.332 1.90619 17.1399 1.79728 16.9124C1.68837 16.6848 1.64627 16.4309 1.67588 16.1804C1.70549 15.9298 1.80559 15.6928 1.96455 15.4968L15.1645 1.89681C15.2636 1.78252 15.3985 1.70528 15.5472 1.67779C15.6959 1.65029 15.8495 1.67416 15.9829 1.74548C16.1162 1.8168 16.2213 1.93134 16.281 2.07029C16.3407 2.20923 16.3513 2.36434 16.3112 2.51014L13.7512 10.5368C13.6757 10.7388 13.6504 10.9562 13.6773 11.1702C13.7043 11.3841 13.7828 11.5884 13.906 11.7654C14.0292 11.9424 14.1936 12.0868 14.3849 12.1864C14.5763 12.2859 14.7889 12.3375 15.0045 12.3368H24.3379C24.5902 12.3359 24.8376 12.4067 25.0513 12.5408C25.265 12.675 25.4362 12.867 25.5451 13.0946C25.6541 13.3222 25.6962 13.576 25.6665 13.8266C25.6369 14.0772 25.5368 14.3142 25.3779 14.5101L12.1779 28.1101C12.0789 28.2244 11.9439 28.3017 11.7952 28.3292C11.6465 28.3567 11.4929 28.3328 11.3596 28.2615C11.2262 28.1901 11.1211 28.0756 11.0614 27.9367C11.0018 27.7977 10.9911 27.6426 11.0312 27.4968L13.5912 19.4701C13.6667 19.2681 13.6921 19.0508 13.6651 18.8368C13.6381 18.6228 13.5597 18.4186 13.4364 18.2416C13.3132 18.0646 13.1489 17.9201 12.9575 17.8206C12.7662 17.7211 12.5536 17.6694 12.3379 17.6701H3.00455Z" stroke="var(--stroke-0, #FF69B4)" stroke-width="3.33333" stroke-linecap="round" stroke-linejoin="round"/>
</svg>
