<svg preserveAspectRatio="none" width="100%" height="100%" overflow="visible" style="display: block;" viewBox="0 0 30.0031 30.0031" fill="none" xmlns="http://www.w3.org/2000/svg">
<path id="Vector" d="M18.3811 27.918C18.4317 28.0442 18.5198 28.152 18.6334 28.2267C18.7471 28.3015 18.8809 28.3397 19.0169 28.3362C19.1528 28.3327 19.2845 28.2877 19.3942 28.2072C19.5039 28.1268 19.5863 28.0147 19.6304 27.886L28.2971 2.55266C28.3397 2.43452 28.3479 2.30667 28.3206 2.18407C28.2932 2.06147 28.2315 1.94919 28.1427 1.86037C28.0539 1.77155 27.9416 1.70986 27.819 1.68252C27.6964 1.65518 27.5685 1.66333 27.4504 1.706L2.11707 10.3727C1.9884 10.4168 1.87631 10.4992 1.79584 10.6089C1.71537 10.7186 1.67037 10.8502 1.66689 10.9862C1.6634 11.1222 1.7016 11.256 1.77635 11.3696C1.8511 11.4833 1.95883 11.5713 2.08507 11.622L12.6584 15.862C12.9927 15.9958 13.2963 16.1959 13.5512 16.4503C13.806 16.7047 14.0066 17.008 14.1411 17.342L18.3811 27.918Z" stroke="var(--stroke-0, white)" stroke-width="3.33333" stroke-linecap="round" stroke-linejoin="round"/>
</svg>
