<svg preserveAspectRatio="none" width="100%" height="100%" overflow="visible" style="display: block;" viewBox="0 0 30.0055 30.0062" fill="none" xmlns="http://www.w3.org/2000/svg">
<path id="Vector" d="M18.6006 7.40492C18.3563 7.65416 18.2195 7.98925 18.2195 8.33826C18.2195 8.68726 18.3563 9.02235 18.6006 9.27159L20.734 11.4049C20.9832 11.6492 21.3183 11.7861 21.6673 11.7861C22.0163 11.7861 22.3514 11.6492 22.6006 11.4049L26.742 7.26492C27.1686 6.83559 27.8926 6.97159 28.0526 7.55559C28.4555 9.02075 28.4327 10.5703 27.987 12.023C27.5413 13.4757 26.6911 14.7715 25.5358 15.7586C24.3806 16.7457 22.9681 17.3834 21.4636 17.597C19.9592 17.8106 18.425 17.5914 17.0406 16.9649L6.49396 27.5116C5.96352 28.0418 5.24417 28.3397 4.49415 28.3395C3.74413 28.3394 3.02488 28.0414 2.49462 27.5109C1.96437 26.9805 1.66654 26.2611 1.66667 25.5111C1.66679 24.7611 1.96486 24.0418 2.49529 23.5116L13.042 12.9649C12.4155 11.5805 12.1962 10.0464 12.4099 8.54192C12.6235 7.03748 13.2612 5.62499 14.2483 4.46974C15.2354 3.31449 16.5311 2.46427 17.9838 2.01856C19.4365 1.57284 20.9861 1.55008 22.4513 1.95292C23.0353 2.11292 23.1713 2.83559 22.7433 3.26492L18.6006 7.40492Z" stroke="var(--stroke-0, #FF69B4)" stroke-width="3.33333" stroke-linecap="round" stroke-linejoin="round"/>
</svg>
