<svg preserveAspectRatio="none" width="100%" height="100%" overflow="visible" style="display: block;" viewBox="0 0 40 40" fill="none" xmlns="http://www.w3.org/2000/svg">
<g id="Icon">
<path id="Vector" d="M30.8333 35C34.055 35 36.6667 32.3883 36.6667 29.1667C36.6667 25.945 34.055 23.3333 30.8333 23.3333C27.6117 23.3333 25 25.945 25 29.1667C25 32.3883 27.6117 35 30.8333 35Z" stroke="var(--stroke-0, #FF69B4)" stroke-width="4.16667" stroke-linecap="round" stroke-linejoin="round"/>
<path id="Vector_2" d="M9.16667 35C12.3883 35 15 32.3883 15 29.1667C15 25.945 12.3883 23.3333 9.16667 23.3333C5.94501 23.3333 3.33333 25.945 3.33333 29.1667C3.33333 32.3883 5.94501 35 9.16667 35Z" stroke="var(--stroke-0, #FF69B4)" stroke-width="4.16667" stroke-linecap="round" stroke-linejoin="round"/>
<path id="Vector_3" d="M25 10C25.9205 10 26.6667 9.25381 26.6667 8.33333C26.6667 7.41286 25.9205 6.66667 25 6.66667C24.0795 6.66667 23.3333 7.41286 23.3333 8.33333C23.3333 9.25381 24.0795 10 25 10Z" stroke="var(--stroke-0, #FF69B4)" stroke-width="4.16667" stroke-linecap="round" stroke-linejoin="round"/>
<path id="Vector_4" d="M20 29.1667V23.3333L15 18.3333L21.6667 13.3333L25 18.3333H28.3333" stroke="var(--stroke-0, #FF69B4)" stroke-width="4.16667" stroke-linecap="round" stroke-linejoin="round"/>
</g>
</svg>
